<?xml version="1.0" encoding="utf-8"?>
<!-- Generator: Adobe Illustrator 23.0.2, SVG Export Plug-In . SVG Version: 6.00 Build 0)  -->
<svg version="1.1" id="Camada_1" xmlns="http://www.w3.org/2000/svg" xmlns:xlink="http://www.w3.org/1999/xlink" x="0px" y="0px"
	 viewBox="0 0 32 32" style="enable-background:new 0 0 32 32;" xml:space="preserve">
<style type="text/css">
	.st0{fillRule:evenodd;clip-rule:evenodd;fill:#81796E;}
	.st1{fillRule:evenodd;clip-rule:evenodd;fill:#FF760C;}
</style>
<g id="XMLID_36_">
	<path class="st0" d="M16,11.8c-5.5,0-8.8,1.8-8.8,7.1c0,2.2,2,4.5,4,6.3c1.9,1.8,3.8,3.4,4.7,3.4c0.9,0,2.8-1.7,4.7-3.4
		c2-1.9,4-4.2,4-6.3C24.8,13.6,21.5,11.8,16,11.8z M12.3,16.4c0-0.5,0.4-0.9,0.9-0.9c0.5,0,0.9,0.4,0.9,0.9c0,0.5-0.4,0.9-0.9,0.9
		C12.7,17.2,12.3,16.9,12.3,16.4z M16,23.6c-1.4,0-2.5-0.9-2.5-2c0-1.1,1.1-2,2.5-2c1.4,0,2.5,0.9,2.5,2
		C18.5,22.7,17.4,23.6,16,23.6z M18.8,17.2c-0.5,0-0.9-0.4-0.9-0.9c0-0.5,0.4-0.9,0.9-0.9c0.5,0,0.9,0.4,0.9,0.9
		C19.7,16.9,19.3,17.2,18.8,17.2z"/>
	<path id="XMLID_5_" class="st0" d="M6.4,17c-1.8,0-2.4-2.4-1.7-3.8c0.7-1.3,1.6-1.6,2.2-1.6c0.7,0,1.5,0.2,1.9,1
		C7.6,13.6,6.7,15,6.4,17"/>
	<path id="XMLID_4_" class="st1" d="M16,3.3c0.5,0,0.8,3,1.1,3.6c0.1,0.3,0.4,0.1,0.6-0.3c0.5-1.3,1.5-2.9,1.7-2.8
		c0.2,0.1,0.1,1.8-0.1,3.1c-0.1,0.6,0.2,0.7,0.5,0.2c0.1-0.2,0.8-1,1.1-1c0.1,0,0.1,0.1,0.2,0.4c0,0.3,0.3,0.1,0.7-0.3
		c0.6-0.6,1.3-1.2,1.4-1.1c0.1,0.1-0.2,1.1-0.5,2c-0.2,0.6-0.1,0.8,0.2,0.6c0.1-0.1,0.6-0.4,0.7-0.2c0,0,0.1,0.1,0,0.5
		c-0.1,0.3,0.2,0.2,0.7-0.1c0.7-0.4,1.4-0.8,1.5-0.7c0.1,0.1-0.3,0.9-0.8,1.8c-0.3,0.5,0,0.6,0.4,0.4c0.3-0.2,0.9-0.5,1.1-0.5
		c0.2,0,0.9-0.5,0.3,1.1c-0.1,0.3,0.2,0.4,0.4,0.3c0.7-0.2,1-0.3,1.7-0.3c0.1,0,0.3,0,0.4,0.1c0.1,0.2,0,0.4-1,1.4
		c-0.1,0.1-0.1,0.2,0.3,0.3c2.1,0.4,2,0.8,1.9,0.9c0,0.1-0.4,0.2-1,0.5c-0.4,0.2-0.3,0.5,0.3,0.8c1.4,0.7,1.3,1,1.3,1.1
		c0,0.1,0,0.2-0.3,0.2c-0.2,0.1-0.1,0.3,0.3,0.6c0.4,0.3,0.7,0.5,0.6,0.6c-0.1,0.1-0.4,0.2-0.9,0.3c-0.5,0.1-0.6,0.3-0.3,0.6
		c0.4,0.5,0.4,0.6,0.3,0.6c-0.1,0.1-0.2,0.1-0.4,0.1c-0.2,0-0.1,0.1,0,0.2c0.2,0.1,1.3,1,1.2,1.2c0,0.1-0.3,0-0.8-0.1
		c-0.4-0.1-0.6-0.2-0.6,0.1c0.1,0.3-0.3,0.4-0.6,0.5c-0.1,0-0.3,0-0.5,0c-0.5,0-0.6,0.5-0.9,1c-1.2,1.9-3.7,3.3-5.4,3.5
		c1.5-1.6,2.9-3.6,2.9-5.6c0-0.3,0-0.6,0-0.9c2.5-0.1,3.5-3.2,2.4-5.2l0,0l0,0c-0.6-1.1-1.7-2.1-3-2.1c-1.2,0-2.2,0.4-2.8,1.5
		c-1.7-1-3.9-1.3-6.3-1.3c-2.5,0-4.7,0.4-6.3,1.3c-0.6-1.1-1.6-1.5-2.8-1.5c-1.4,0-2.4,1-3,2.1l0,0l0,0c-1,2-0.1,5.2,2.4,5.2
		c0,0.3,0,0.6,0,0.9c0,2,1.4,4,2.9,5.6C7.4,24.3,4.9,23,3.7,21c-0.3-0.5-0.4-1-0.9-1c-0.2,0-0.4,0-0.5,0c-0.3,0-0.6-0.2-0.6-0.5
		c0.1-0.3-0.1-0.2-0.6-0.1c-0.4,0.1-0.7,0.1-0.8,0.1c0-0.2,1-1,1.2-1.2c0.1-0.1,0.2-0.2,0-0.2c-0.2,0-0.4,0-0.4-0.1
		c-0.1-0.1-0.1-0.2,0.3-0.6c0.3-0.3,0.2-0.6-0.3-0.6c-0.4-0.1-0.8-0.1-0.9-0.3c-0.1-0.1,0.2-0.4,0.6-0.6c0.4-0.3,0.5-0.5,0.3-0.6
		c-0.3-0.1-0.3-0.2-0.3-0.2c0-0.1-0.1-0.4,1.3-1.1c0.5-0.3,0.6-0.6,0.3-0.8c-0.5-0.3-0.9-0.4-1-0.5c0-0.1-0.2-0.5,1.9-0.9
		c0.4-0.1,0.4-0.2,0.3-0.3c-1-1-1.1-1.2-1-1.4C2.8,10,2.9,10,3,10c0.8,0,1.1,0.1,1.7,0.3c0.3,0.1,0.5,0,0.4-0.3
		C4.6,8.3,5.4,8.8,5.6,8.9c0.2,0,0.8,0.3,1.1,0.5C7,9.6,7.3,9.5,7.1,9C6.6,8.1,6.1,7.3,6.3,7.2c0.1-0.1,0.8,0.3,1.5,0.7
		C8.2,8.3,8.5,8.3,8.4,8c-0.1-0.4-0.1-0.4,0-0.5C8.5,7.4,9,7.7,9.1,7.8C9.4,8,9.5,7.7,9.3,7.2C9,6.3,8.7,5.3,8.8,5.2
		c0.1-0.1,0.8,0.5,1.4,1.1c0.4,0.4,0.7,0.5,0.7,0.3c0-0.3,0.1-0.4,0.2-0.4c0.3-0.1,1,0.8,1.1,1c0.4,0.5,0.6,0.4,0.5-0.2
		c-0.1-1.3-0.3-3.1-0.1-3.1c0.2-0.1,1.2,1.6,1.7,2.8c0.2,0.5,0.5,0.7,0.6,0.3C15.2,6.3,15.5,3.3,16,3.3"/>
	<path id="XMLID_3_" class="st0" d="M25.6,17c1.8,0,2.4-2.4,1.7-3.8c-0.7-1.3-1.6-1.6-2.2-1.6c-0.7,0-1.5,0.2-1.9,1
		C24.4,13.6,25.3,15,25.6,17"/>
	<path class="st0" d="M16,20.6c-0.8,0-1.5,0.4-1.5,1c0,0.5,0.7,1,1.5,1c0.8,0,1.5-0.4,1.5-1C17.5,21,16.8,20.6,16,20.6z M16,21.2
		c-0.6,0-1.1,0.4-1.1,0.3c0-0.4,0.6-0.6,1.1-0.6c0.4,0,1,0.2,1.1,0.6C17.1,21.6,16.6,21.2,16,21.2z"/>
</g>
</svg>
