<svg width="200" height="61" viewBox="0 0 200 61" fill="none" xmlns="http://www.w3.org/2000/svg">
<path fill-rule="evenodd" clip-rule="evenodd" d="M29.4612 28.9163C19.1229 28.9163 13.0033 32.3537 13.0033 42.2764C13.0033 46.3805 16.7845 50.646 20.5729 54.1928C24.1291 57.526 27.779 60.6249 29.4633 60.6249C31.1477 60.6249 34.7965 57.5208 38.3527 54.1928C42.1412 50.6512 45.9223 46.3805 45.9223 42.2764C45.9213 32.3558 39.7995 28.9163 29.4612 28.9163V28.9163ZM22.5406 37.5317C22.5406 37.2128 22.6351 36.901 22.8123 36.6359C22.9895 36.3707 23.2413 36.164 23.536 36.042C23.8306 35.9199 24.1548 35.888 24.4676 35.9502C24.7804 36.0124 25.0677 36.166 25.2932 36.3915C25.5187 36.617 25.6723 36.9043 25.7345 37.2171C25.7967 37.5299 25.7648 37.8541 25.6428 38.1488C25.5207 38.4434 25.314 38.6952 25.0489 38.8724C24.7837 39.0496 24.472 39.1442 24.153 39.1442C23.7256 39.1442 23.3156 38.9744 23.0132 38.6723C22.7109 38.3701 22.5408 37.9602 22.5406 37.5327V37.5317ZM29.4612 51.0918C26.8509 51.0918 24.7353 49.3783 24.7353 47.2638C24.7353 45.1492 26.8509 43.4357 29.4612 43.4357C32.0716 43.4357 34.1872 45.1492 34.1872 47.2638C34.1872 49.3783 32.0706 51.0918 29.4612 51.0918ZM34.7736 39.1442C34.4547 39.1442 34.1429 39.0496 33.8778 38.8724C33.6126 38.6952 33.4059 38.4434 33.2839 38.1488C33.1619 37.8541 33.1299 37.5299 33.1921 37.2171C33.2544 36.9043 33.4079 36.617 33.6334 36.3915C33.8589 36.166 34.1463 36.0124 34.459 35.9502C34.7718 35.888 35.096 35.9199 35.3907 36.042C35.6853 36.164 35.9372 36.3707 36.1143 36.6359C36.2915 36.901 36.3861 37.2128 36.3861 37.5317C36.3861 37.7439 36.3442 37.954 36.2628 38.15C36.1815 38.3459 36.0622 38.5239 35.912 38.6737C35.7617 38.8235 35.5833 38.9422 35.3871 39.0229C35.1908 39.1036 34.9806 39.1448 34.7684 39.1442H34.7736ZM11.3815 38.6713C8.06904 38.764 6.85865 34.2287 8.23778 31.611C9.62629 29.1309 11.2085 28.6121 12.2908 28.6121C13.025 28.5302 13.7668 28.6734 14.4179 29.0225C15.0689 29.3717 15.5985 29.9104 15.9366 30.5673C13.4321 32.5813 11.8018 35.4845 11.3856 38.6713" fill="white"/>
<path fill-rule="evenodd" clip-rule="evenodd" d="M29.4613 13C30.4092 13.0083 31.0081 18.604 31.5446 19.7863C31.8195 20.3925 32.306 20.0675 32.6695 19.1436C33.607 16.7718 35.434 13.6948 35.8767 13.8125C36.3194 13.9302 35.9882 17.2228 35.7236 19.6915C35.6049 20.7936 36.0101 20.9498 36.6809 20.0665C36.8996 19.779 38.16 18.1051 38.6881 18.2332C38.8131 18.2634 38.9569 18.3676 38.9829 19.0113C39.0017 19.4915 39.5829 19.2426 40.3902 18.4842C41.586 17.3614 42.7589 16.2489 43.0235 16.4822C43.2682 16.6978 42.6568 18.5072 42.086 20.1759C41.7245 21.2248 41.8391 21.729 42.3985 21.3571C42.6453 21.1946 43.512 20.6279 43.762 20.9529C43.8266 21.0352 43.9328 21.155 43.6745 21.8623C43.4953 22.355 44.0547 22.2435 44.9963 21.654C46.2744 20.8571 47.5556 20.0728 47.7515 20.253C48.0119 20.4925 47.1744 22.0237 46.2734 23.6904C45.7453 24.6654 46.3546 24.7424 46.9817 24.3497C47.6491 23.9558 48.3583 23.6376 49.0962 23.4008C49.4525 23.3154 50.8785 22.405 49.7129 25.4539C49.5046 25.9872 50.0597 26.1403 50.5368 26.0268C51.5989 25.679 52.7069 25.4919 53.8242 25.4716C53.9468 25.4554 54.0715 25.4696 54.1874 25.5128C54.3033 25.556 54.4067 25.627 54.4888 25.7195C54.6742 26.0101 54.4888 26.4664 52.6659 28.3371C52.442 28.5663 52.4795 28.7715 53.1493 28.9132C57.1075 29.7465 56.8554 30.4652 56.795 30.6652C56.7346 30.8652 55.9617 31.1287 54.9523 31.6402C54.2482 31.9964 54.4617 32.5985 55.4357 33.1266C58.0231 34.5328 57.8773 35.0807 57.8491 35.2005C57.8262 35.2984 57.7731 35.4922 57.2096 35.6411C56.771 35.7557 57.0377 36.2057 57.7804 36.7797C58.4491 37.3005 59.0085 37.7494 58.9137 37.9911C58.8189 38.2327 58.1325 38.3223 57.2877 38.464C56.3502 38.615 56.0888 39.1129 56.644 39.6837C57.4877 40.5452 57.3637 40.7681 57.269 40.8775C57.1578 40.9623 57.0307 41.0237 56.8951 41.0579C56.7596 41.0921 56.6185 41.0984 56.4804 41.0764C56.0367 41.0608 56.2002 41.2368 56.395 41.3712C56.8013 41.6525 58.7908 43.2253 58.7231 43.5587C58.6939 43.7107 58.1096 43.6024 57.2867 43.4337C56.4836 43.2732 56.1117 43.1003 56.245 43.5909C56.3783 44.0816 55.7179 44.3847 55.2034 44.4534C54.8965 44.4904 54.5875 44.5065 54.2784 44.5013C53.3045 44.5013 53.1326 45.4294 52.5972 46.2951C51.4308 48.007 49.9305 49.4655 48.1863 50.583C46.4422 51.7005 44.4901 52.4539 42.4474 52.798C45.2349 49.796 47.8265 46.1065 47.8265 42.2774C47.8265 41.6889 47.8056 41.1233 47.766 40.5754C52.4743 40.4796 54.343 34.4693 52.3691 30.7235L52.3576 30.7027L52.3451 30.6819C51.1389 28.5278 49.2379 26.7091 46.6317 26.708C45.5827 26.6241 44.5316 26.8428 43.6032 27.3381C42.6747 27.8335 41.9077 28.5847 41.3933 29.5027C38.2381 27.7142 34.1143 27.0122 29.4623 27.0122C24.8103 27.0122 20.6865 27.7142 17.5313 29.5027C17.0168 28.5848 16.2498 27.8336 15.3214 27.3383C14.3929 26.843 13.3419 26.6242 12.2929 26.708C9.68882 26.708 7.78574 28.5267 6.57952 30.6819L6.56806 30.7027L6.5566 30.7235C4.58269 34.4735 6.45244 40.4785 11.1596 40.5754C11.119 41.1418 11.0988 41.7095 11.0992 42.2774C11.0992 46.1107 13.6908 49.7991 16.4782 52.798C14.4356 52.4539 12.4835 51.7005 10.7393 50.583C8.99514 49.4655 7.49482 48.007 6.32848 46.2951C5.78787 45.4294 5.62016 44.5013 4.64727 44.5013C4.33856 44.5065 4.02986 44.4904 3.72333 44.4534C3.21293 44.3847 2.55565 44.0805 2.68169 43.5909C2.80773 43.1014 2.44003 43.2785 1.64005 43.4337C0.817153 43.6024 0.23175 43.7118 0.203625 43.5587C0.131752 43.2253 2.12546 41.6525 2.53065 41.3712C2.72544 41.2368 2.88898 41.0587 2.44524 41.0764C2.30718 41.0983 2.16613 41.0919 2.0306 41.0577C1.89508 41.0235 1.76789 40.9622 1.65672 40.8775C1.56193 40.7733 1.43797 40.5462 2.2817 39.6837C2.8369 39.1119 2.57024 38.614 1.63797 38.464C0.793195 38.3223 0.107794 38.2327 0.0109215 37.9911C-0.0859512 37.7494 0.475494 37.3005 1.14423 36.7797C1.88588 36.2057 2.15358 35.7557 1.71505 35.6411C1.15048 35.4922 1.09735 35.2984 1.07548 35.2005C1.04736 35.0807 0.901526 34.5328 3.48792 33.1266C4.4629 32.5985 4.6754 31.9964 3.97125 31.6402C2.96294 31.1287 2.19108 30.8704 2.12858 30.6652C2.06608 30.46 1.81609 29.7517 5.77433 28.9132C6.4441 28.7715 6.4816 28.5663 6.25765 28.3371C4.43061 26.4622 4.24936 26.0101 4.43478 25.7195C4.51684 25.627 4.62033 25.556 4.73619 25.5128C4.85205 25.4696 4.97674 25.4554 5.09934 25.4716C6.21633 25.492 7.32401 25.6791 8.38572 26.0268C8.8628 26.1403 9.41383 25.9872 9.20966 25.4539C8.04407 22.405 9.47112 23.3154 9.82632 23.4008C10.5642 23.6376 11.2734 23.9559 11.9408 24.3497C12.5658 24.7435 13.1783 24.6622 12.6502 23.6904C11.7492 22.029 10.9117 20.4936 11.1721 20.253C11.3669 20.0728 12.6481 20.8561 13.9262 21.654C14.8637 22.2404 15.4272 22.3519 15.2481 21.8623C14.9897 21.1561 15.096 21.0352 15.1606 20.9529C15.4095 20.6332 16.2772 21.1946 16.5241 21.3571C17.0866 21.7279 17.2011 21.2248 16.8366 20.1759C16.2616 18.5092 15.6491 16.6978 15.8991 16.4822C16.1637 16.2489 17.3355 17.3624 18.5324 18.4842C19.3407 19.2426 19.9219 19.4915 19.9407 19.0113C19.9657 18.3676 20.1094 18.2645 20.2354 18.2332C20.7646 18.1051 22.025 19.779 22.2427 20.0665C22.9135 20.9498 23.3187 20.7956 23.201 19.6915C22.9354 17.2228 22.6083 13.9281 23.0468 13.8125C23.4854 13.6969 25.3207 16.7718 26.2541 19.1436C26.6176 20.0675 27.104 20.3936 27.379 19.7863C27.9155 18.604 28.5144 13.0083 29.4623 13" fill="white"/>
<path fill-rule="evenodd" clip-rule="evenodd" d="M47.54 38.6713C50.8525 38.764 52.0628 34.2287 50.6837 31.611C49.2952 29.1309 47.7119 28.6121 46.6307 28.6121C45.8964 28.5294 45.1542 28.6721 44.503 29.0214C43.8518 29.3706 43.3223 29.9098 42.9849 30.5673C45.4897 32.5811 47.12 35.4844 47.5359 38.6713H47.54ZM29.4603 45.4044C27.9436 45.4044 26.7124 46.2378 26.7124 47.2648C26.7124 48.2919 27.9436 49.1242 29.4603 49.1242C30.9769 49.1242 32.2102 48.2908 32.2102 47.2648C32.2102 46.2388 30.979 45.4044 29.4603 45.4044ZM29.4603 46.568C28.2728 46.568 27.4145 47.3252 27.4363 47.07C27.4988 46.3357 28.653 45.9086 29.4603 45.9086C30.2675 45.9086 31.4217 46.3357 31.4852 47.07C31.5071 47.3252 30.6477 46.568 29.4603 46.568Z" fill="white"/>
<path fill-rule="evenodd" clip-rule="evenodd" d="M87.9401 43.6889V55.7719H90.8567V43.1035C90.8567 40.3598 89.4921 33.5099 82.011 33.4724C80.6605 33.4912 79.3289 33.7925 78.1018 34.3568C76.8747 34.9212 75.7793 35.7362 74.8862 36.7495V21.5477H71.9696V55.7709H74.8862V44.0847C74.8862 37.5786 78.8851 36.1026 81.8506 36.2182C86.0776 36.3828 87.9401 39.941 87.9401 43.6889" fill="white"/>
<path fill-rule="evenodd" clip-rule="evenodd" d="M107.134 32.9548C108.698 32.9526 110.247 33.2596 111.692 33.8581C113.137 34.4566 114.45 35.3348 115.554 36.4422L113.496 38.5036C112.238 37.2462 110.637 36.39 108.893 36.0431C107.149 35.6962 105.341 35.8742 103.698 36.5547C102.055 37.2351 100.651 38.3874 99.6633 39.8659C98.6754 41.3444 98.1481 43.0826 98.1481 44.8607C98.1481 46.6389 98.6754 48.3771 99.6633 49.8555C100.651 51.334 102.055 52.4863 103.698 53.1668C105.341 53.8473 107.149 54.0253 108.893 53.6784C110.637 53.3315 112.238 52.4752 113.496 51.2179L115.557 53.2793C114.173 54.6635 112.468 55.685 110.595 56.2532C108.721 56.8214 106.736 56.9188 104.816 56.5368C102.896 56.1548 101.099 55.3051 99.586 54.0631C98.0726 52.821 96.8889 51.2249 96.1396 49.4161C95.3903 47.6073 95.0987 45.6417 95.2905 43.6933C95.4823 41.7449 96.1516 39.8738 97.2392 38.2458C98.3268 36.6179 99.7991 35.2832 101.526 34.3601C103.252 33.437 105.18 32.954 107.138 32.9537L107.134 32.9548ZM131.833 35.8703C133.611 35.8703 135.349 36.3976 136.828 37.3855C138.306 38.3733 139.458 39.7775 140.139 41.4202C140.819 43.063 140.997 44.8707 140.65 46.6147C140.304 48.3586 139.447 49.9606 138.19 51.2179C136.933 52.4752 135.331 53.3315 133.587 53.6784C131.843 54.0253 130.035 53.8472 128.392 53.1668C126.75 52.4863 125.345 51.334 124.358 49.8555C123.37 48.3771 122.842 46.6389 122.842 44.8607C122.842 42.4763 123.79 40.1896 125.476 38.5035C127.162 36.8175 129.448 35.8703 131.833 35.8703ZM131.833 32.9537C134.188 32.9537 136.49 33.652 138.447 34.9602C140.405 36.2685 141.931 38.1279 142.833 40.3035C143.734 42.479 143.969 44.8729 143.51 47.1824C143.051 49.492 141.917 51.6134 140.252 53.2785C138.587 54.9436 136.465 56.0775 134.156 56.5369C131.846 56.9963 129.452 56.7605 127.277 55.8594C125.101 54.9582 123.242 53.4322 121.933 51.4743C120.625 49.5164 119.927 47.2145 119.927 44.8597C119.927 41.7022 121.182 38.6741 123.414 36.4416C125.647 34.209 128.675 32.9548 131.833 32.9548V32.9537ZM169.008 44.8399H168.999V44.4482C168.891 42.0843 167.855 39.8584 166.116 38.2531C164.378 36.6479 162.076 35.7929 159.711 35.8736C157.346 35.9542 155.108 36.964 153.483 38.6839C151.858 40.4039 150.976 42.6952 151.029 45.061C151.083 47.4267 152.066 49.6761 153.767 51.3212C155.468 52.9663 157.749 53.8744 160.116 53.8486C162.482 53.8228 164.742 52.8651 166.407 51.1834C168.072 49.5016 169.006 47.2312 169.008 44.8649V44.8399ZM160.018 32.9548C161.72 32.9527 163.403 33.3168 164.953 34.0224C166.503 34.728 167.882 35.7586 168.999 37.0442V21.5477H171.915V44.8586C171.915 47.2134 171.217 49.5153 169.909 51.4732C168.6 53.4312 166.741 54.9572 164.565 55.8583C162.39 56.7595 159.996 56.9952 157.687 56.5358C155.377 56.0764 153.256 54.9425 151.59 53.2774C149.925 51.6124 148.791 49.4909 148.332 47.1814C147.873 44.8719 148.108 42.478 149.01 40.3024C149.911 38.1269 151.437 36.2674 153.395 34.9592C155.353 33.6509 157.654 32.9527 160.009 32.9527L160.018 32.9548ZM196.396 41.1556C195.517 39.2131 193.977 37.6459 192.051 36.7337C190.124 35.8215 187.935 35.6236 185.876 36.1754C183.817 36.7271 182.021 37.9926 180.808 39.7461C179.595 41.4995 179.045 43.6267 179.256 45.7482L196.396 41.1556ZM185.126 33.36C186.756 32.924 188.459 32.8389 190.123 33.1105C191.788 33.382 193.375 34.0039 194.781 34.9351C196.188 35.8662 197.38 37.0854 198.28 38.5119C199.179 39.9384 199.766 41.5396 200 43.2097L180.016 48.5638C180.698 50.0704 181.781 51.36 183.148 52.2906C184.515 53.2212 186.112 53.7568 187.764 53.8385C189.416 53.9202 191.058 53.5449 192.51 52.7538C193.962 51.9627 195.168 50.7864 195.995 49.3544L198.52 50.8127C197.541 52.5083 196.159 53.9364 194.496 54.9703C192.834 56.0043 190.942 56.6123 188.988 56.7404C187.034 56.8686 185.079 56.5129 183.296 55.705C181.512 54.897 179.956 53.6617 178.764 52.1084C177.572 50.5551 176.781 48.7319 176.462 46.8001C176.143 44.8684 176.305 42.8877 176.934 41.0337C177.564 39.1796 178.64 37.5094 180.069 36.1708C181.498 34.8323 183.235 33.8668 185.126 33.36V33.36Z" fill="white"/>
<path d="M138.904 12.4463C139.474 12.4463 139.95 12.2868 140.333 11.9678C140.72 11.6442 140.93 11.2272 140.962 10.7168H141.748C141.725 11.168 141.584 11.5804 141.324 11.9541C141.064 12.3232 140.718 12.6126 140.285 12.8223C139.857 13.0319 139.396 13.1367 138.904 13.1367C137.934 13.1367 137.163 12.7995 136.594 12.125C136.029 11.4505 135.746 10.5436 135.746 9.4043V9.1582C135.746 8.42904 135.874 7.78418 136.129 7.22363C136.384 6.66309 136.749 6.23014 137.223 5.9248C137.701 5.61947 138.259 5.4668 138.897 5.4668C139.709 5.4668 140.376 5.70833 140.9 6.19141C141.429 6.67448 141.712 7.31022 141.748 8.09863H140.962C140.925 7.51986 140.716 7.05273 140.333 6.69727C139.955 6.3418 139.476 6.16406 138.897 6.16406C138.159 6.16406 137.585 6.43066 137.175 6.96387C136.769 7.49707 136.566 8.24447 136.566 9.20605V9.44531C136.566 10.3887 136.769 11.1247 137.175 11.6533C137.585 12.182 138.161 12.4463 138.904 12.4463ZM146.807 6.30078C146.633 6.26888 146.449 6.25293 146.253 6.25293C145.743 6.25293 145.31 6.39648 144.954 6.68359C144.603 6.96615 144.353 7.37858 144.202 7.9209V13H143.389V5.60352H144.188L144.202 6.7793C144.635 5.9043 145.33 5.4668 146.287 5.4668C146.515 5.4668 146.695 5.49642 146.827 5.55566L146.807 6.30078ZM150.833 13.1367C150.204 13.1367 149.634 12.9818 149.124 12.6719C148.618 12.362 148.224 11.9313 147.941 11.3799C147.659 10.8239 147.518 10.2018 147.518 9.51367V9.21973C147.518 8.50879 147.654 7.86849 147.928 7.29883C148.206 6.72917 148.591 6.28255 149.083 5.95898C149.575 5.63086 150.108 5.4668 150.683 5.4668C151.58 5.4668 152.291 5.77441 152.815 6.38965C153.344 7.00033 153.608 7.83659 153.608 8.89844V9.35645H148.331V9.51367C148.331 10.3522 148.57 11.0518 149.049 11.6123C149.532 12.1683 150.138 12.4463 150.867 12.4463C151.305 12.4463 151.69 12.3665 152.022 12.207C152.36 12.0475 152.665 11.7923 152.938 11.4414L153.451 11.8311C152.85 12.7015 151.977 13.1367 150.833 13.1367ZM150.683 6.16406C150.067 6.16406 149.548 6.38965 149.124 6.84082C148.705 7.29199 148.45 7.89811 148.358 8.65918H152.795V8.57031C152.772 7.85938 152.569 7.2806 152.187 6.83398C151.804 6.38737 151.302 6.16406 150.683 6.16406ZM159.87 13C159.788 12.7676 159.736 12.4235 159.713 11.9678C159.426 12.3415 159.059 12.6309 158.612 12.8359C158.17 13.0365 157.701 13.1367 157.204 13.1367C156.493 13.1367 155.917 12.9385 155.475 12.542C155.037 12.1455 154.818 11.6442 154.818 11.0381C154.818 10.318 155.117 9.74837 155.714 9.3291C156.315 8.90983 157.152 8.7002 158.223 8.7002H159.706V7.85938C159.706 7.33073 159.542 6.91602 159.214 6.61523C158.89 6.3099 158.416 6.15723 157.792 6.15723C157.222 6.15723 156.751 6.30306 156.377 6.59473C156.003 6.88639 155.816 7.2373 155.816 7.64746L154.996 7.64062C154.996 7.05273 155.27 6.5446 155.816 6.11621C156.363 5.68327 157.035 5.4668 157.833 5.4668C158.658 5.4668 159.307 5.67415 159.781 6.08887C160.26 6.49902 160.506 7.07324 160.52 7.81152V11.3115C160.52 12.027 160.595 12.5625 160.745 12.918V13H159.87ZM157.3 12.4121C157.847 12.4121 158.334 12.2799 158.763 12.0156C159.196 11.7513 159.51 11.3981 159.706 10.9561V9.3291H158.243C157.427 9.33822 156.789 9.48861 156.329 9.78027C155.869 10.0674 155.639 10.4639 155.639 10.9697C155.639 11.3844 155.791 11.7285 156.097 12.002C156.407 12.2754 156.808 12.4121 157.3 12.4121ZM163.979 3.70996V5.60352H165.51V6.27344H163.979V11.2021C163.979 11.6123 164.051 11.9176 164.197 12.1182C164.348 12.3187 164.596 12.4189 164.942 12.4189C165.079 12.4189 165.3 12.3962 165.605 12.3506L165.64 13.0205C165.425 13.098 165.134 13.1367 164.765 13.1367C164.204 13.1367 163.796 12.9749 163.541 12.6514C163.286 12.3232 163.158 11.8424 163.158 11.209V6.27344H161.798V5.60352H163.158V3.70996H163.979ZM170.069 13.1367C169.44 13.1367 168.871 12.9818 168.36 12.6719C167.854 12.362 167.46 11.9313 167.178 11.3799C166.895 10.8239 166.754 10.2018 166.754 9.51367V9.21973C166.754 8.50879 166.891 7.86849 167.164 7.29883C167.442 6.72917 167.827 6.28255 168.319 5.95898C168.812 5.63086 169.345 5.4668 169.919 5.4668C170.817 5.4668 171.528 5.77441 172.052 6.38965C172.58 7.00033 172.845 7.83659 172.845 8.89844V9.35645H167.567V9.51367C167.567 10.3522 167.807 11.0518 168.285 11.6123C168.768 12.1683 169.374 12.4463 170.104 12.4463C170.541 12.4463 170.926 12.3665 171.259 12.207C171.596 12.0475 171.901 11.7923 172.175 11.4414L172.688 11.8311C172.086 12.7015 171.213 13.1367 170.069 13.1367ZM169.919 6.16406C169.304 6.16406 168.784 6.38965 168.36 6.84082C167.941 7.29199 167.686 7.89811 167.595 8.65918H172.031V8.57031C172.008 7.85938 171.806 7.2806 171.423 6.83398C171.04 6.38737 170.539 6.16406 169.919 6.16406ZM174.109 9.2334C174.109 8.08496 174.365 7.17122 174.875 6.49219C175.39 5.80859 176.087 5.4668 176.967 5.4668C177.965 5.4668 178.726 5.861 179.25 6.64941V2.5H180.063V13H179.298L179.264 12.0156C178.74 12.763 177.969 13.1367 176.953 13.1367C176.101 13.1367 175.413 12.7949 174.889 12.1113C174.369 11.4232 174.109 10.4958 174.109 9.3291V9.2334ZM174.937 9.37695C174.937 10.3203 175.126 11.0654 175.504 11.6123C175.882 12.1546 176.415 12.4258 177.104 12.4258C178.111 12.4258 178.826 11.9814 179.25 11.0928V7.62012C178.826 6.65853 178.115 6.17773 177.117 6.17773C176.429 6.17773 175.894 6.44889 175.511 6.99121C175.128 7.52897 174.937 8.32422 174.937 9.37695ZM191.575 9.37695C191.575 10.5299 191.32 11.446 190.81 12.125C190.299 12.7995 189.613 13.1367 188.752 13.1367C187.722 13.1367 186.943 12.7539 186.414 11.9883L186.38 13H185.614V2.5H186.428V6.67676C186.947 5.87012 187.717 5.4668 188.738 5.4668C189.613 5.4668 190.304 5.80176 190.81 6.47168C191.32 7.13704 191.575 8.06445 191.575 9.25391V9.37695ZM190.755 9.2334C190.755 8.25814 190.566 7.50618 190.188 6.97754C189.809 6.44434 189.276 6.17773 188.588 6.17773C188.064 6.17773 187.619 6.30762 187.255 6.56738C186.89 6.82259 186.615 7.19857 186.428 7.69531V11.0312C186.838 11.9609 187.562 12.4258 188.602 12.4258C189.276 12.4258 189.802 12.1592 190.181 11.626C190.563 11.0928 190.755 10.2952 190.755 9.2334ZM195.649 11.8242L197.81 5.60352H198.691L195.533 14.2578L195.369 14.6406C194.964 15.5384 194.337 15.9873 193.489 15.9873C193.293 15.9873 193.084 15.9554 192.86 15.8916L192.854 15.2148L193.277 15.2559C193.678 15.2559 194.002 15.1556 194.248 14.9551C194.499 14.7591 194.711 14.4196 194.884 13.9365L195.246 12.9385L192.457 5.60352H193.353L195.649 11.8242Z" fill="white"/>
</svg>
